<?xml version="1.0" encoding="utf-8"?>
<!-- Generator: Adobe Illustrator 16.0.0, SVG Export Plug-In . SVG Version: 6.00 Build 0)  -->
<!DOCTYPE svg PUBLIC "-//W3C//DTD SVG 1.1//EN" "http://www.w3.org/Graphics/SVG/1.1/DTD/svg11.dtd">
<svg version="1.1" id="Layer_1" xmlns="http://www.w3.org/2000/svg" xmlns:xlink="http://www.w3.org/1999/xlink" x="0px" y="0px"
	 width="153.688px" height="42.623px" viewBox="0 0 153.688 42.623" enable-background="new 0 0 153.688 42.623"
	 xml:space="preserve">
<g>
	<g>
		<path fill="#FFFFFF" d="M80.526,33.36V17.309h5.565v0.888h-2.858v14.274h2.858v0.889H80.526z"/>
		<path fill="#FFFFFF" d="M89.128,30.391V17.309h2.861v11.771h5.239v1.31H89.128z"/>
		<path fill="#FFFFFF" d="M99.122,19.667v-1.809h2.71v1.809H99.122z M99.122,30.391v-9.335h2.71v9.335H99.122z"/>
		<path fill="#FFFFFF" d="M104.739,30.391v-9.335h2.709v0.921c0.489-0.291,1.03-0.538,1.617-0.743
			c0.593-0.205,1.241-0.308,1.949-0.308c0.59,0,1.043,0.098,1.356,0.291c0.31,0.194,0.53,0.436,0.656,0.727s0.189,0.587,0.189,0.888
			v7.559h-2.707v-7.058c0-0.333-0.077-0.592-0.228-0.776c-0.151-0.183-0.464-0.274-0.936-0.274c-0.302,0-0.621,0.056-0.95,0.17
			c-0.329,0.112-0.642,0.25-0.947,0.412v7.526H104.739z"/>
		<path fill="#FFFFFF" d="M115.897,30.373v-13.08h2.707v7.798l3.948-4.036h2.834l-3.441,3.65l3.342,5.685h-2.707l-2.734-4.783
			l-1.241,1.197v3.568H115.897z"/>
		<path fill="#FFFFFF" d="M130.091,30.517c-1.197,0-2.158-0.236-2.883-0.717s-1.137-1.112-1.24-1.897l2.25-0.437
			c0.139,0.59,0.363,1.035,0.688,1.332c0.318,0.296,0.791,0.445,1.416,0.445c0.488,0,0.859-0.088,1.113-0.267
			c0.252-0.178,0.381-0.417,0.381-0.719c0-0.269-0.094-0.511-0.279-0.728c-0.188-0.214-0.49-0.434-0.912-0.659l-2.504-1.373
			c-0.506-0.28-0.934-0.593-1.279-0.938s-0.516-0.792-0.516-1.341c0-0.494,0.152-0.911,0.465-1.25
			c0.314-0.339,0.75-0.597,1.316-0.775c0.564-0.177,1.227-0.267,1.984-0.267c1.164,0,2.055,0.24,2.672,0.718
			c0.615,0.48,0.963,1.058,1.051,1.736l-1.822,0.437c-0.068-0.324-0.17-0.606-0.305-0.848s-0.322-0.431-0.559-0.566
			c-0.234-0.134-0.549-0.202-0.932-0.202c-0.439,0-0.791,0.095-1.053,0.283c-0.26,0.188-0.393,0.412-0.393,0.67
			c0,0.162,0.055,0.321,0.164,0.477c0.111,0.156,0.301,0.31,0.572,0.461l2.58,1.516c0.352,0.206,0.688,0.428,1,0.665
			c0.311,0.236,0.568,0.505,0.77,0.807c0.203,0.302,0.305,0.651,0.305,1.049c0,0.527-0.168,0.969-0.506,1.323
			c-0.338,0.357-0.811,0.623-1.416,0.802C131.612,30.429,130.903,30.517,130.091,30.517z"/>
		<path fill="#FFFFFF" d="M135.456,33.36v-0.889h2.861V18.214h-2.861v-0.905h5.596V33.36H135.456z"/>
	</g>
	<g>
		<path fill="#FFFFFF" d="M19.891,35.244c-1.575,0-2.884-0.335-3.93-1.01c-1.046-0.676-1.838-1.609-2.377-2.801
			c-0.541-1.191-0.855-2.575-0.946-4.151l3.374-0.909c0.067,0.966,0.22,1.9,0.456,2.8c0.236,0.898,0.624,1.634,1.164,2.211
			c0.54,0.57,1.293,0.858,2.26,0.858c0.99,0,1.738-0.277,2.245-0.826c0.505-0.549,0.759-1.345,0.759-2.377
			c0-1.238-0.281-2.235-0.844-2.987c-0.563-0.752-1.271-1.511-2.125-2.277l-4.587-4.048c-0.901-0.787-1.564-1.647-1.991-2.581
			c-0.428-0.934-0.641-2.085-0.641-3.458c0-2.001,0.573-3.553,1.72-4.655c1.147-1.102,2.71-1.654,4.689-1.654
			c1.079,0,2.029,0.141,2.851,0.423c0.821,0.281,1.506,0.714,2.058,1.298c0.551,0.585,0.99,1.321,1.315,2.21
			c0.327,0.888,0.545,1.929,0.659,3.12l-3.24,0.877c-0.067-0.899-0.202-1.726-0.405-2.48c-0.202-0.752-0.556-1.36-1.063-1.822
			c-0.505-0.459-1.231-0.69-2.176-0.69c-0.945,0-1.682,0.253-2.21,0.758c-0.528,0.507-0.792,1.255-0.792,2.245
			c0,0.832,0.14,1.518,0.421,2.058c0.282,0.54,0.736,1.091,1.366,1.653l4.622,4.048c1.035,0.9,1.945,1.974,2.733,3.222
			c0.787,1.249,1.181,2.727,1.181,4.437c0,1.348-0.282,2.511-0.843,3.492c-0.563,0.978-1.333,1.728-2.312,2.243
			C22.303,34.986,21.173,35.244,19.891,35.244z"/>
		<path fill="#FFFFFF" d="M29.202,34.942V7.615h3.609v9.853c0.652-0.63,1.384-1.17,2.193-1.62c0.81-0.45,1.709-0.675,2.699-0.675
			c0.765,0,1.355,0.203,1.771,0.608c0.416,0.405,0.708,0.91,0.877,1.519c0.169,0.606,0.254,1.226,0.254,1.854v15.79h-3.61V20.199
			c0-0.696-0.102-1.237-0.303-1.618c-0.203-0.383-0.619-0.574-1.25-0.574c-0.427,0-0.872,0.124-1.332,0.371
			c-0.461,0.248-0.895,0.552-1.3,0.911v15.654H29.202z"/>
		<path fill="#FFFFFF" d="M49.478,35.211c-1.44,0-2.577-0.291-3.407-0.875c-0.833-0.585-1.423-1.42-1.772-2.496
			c-0.349-1.082-0.523-2.35-0.523-3.813v-5.668c0-1.462,0.174-2.733,0.523-3.813c0.349-1.079,0.939-1.911,1.772-2.497
			c0.831-0.583,1.967-0.877,3.407-0.877c1.438,0,2.568,0.294,3.391,0.877c0.82,0.586,1.404,1.418,1.754,2.497
			c0.347,1.079,0.522,2.351,0.522,3.813v5.668c0,1.463-0.175,2.731-0.522,3.813c-0.35,1.076-0.935,1.911-1.754,2.496
			C52.046,34.92,50.916,35.211,49.478,35.211z M49.478,32.548c0.696,0,1.186-0.203,1.467-0.609c0.28-0.403,0.449-0.938,0.505-1.603
			c0.056-0.662,0.085-1.354,0.085-2.074v-6.106c0-0.743-0.029-1.44-0.085-2.092c-0.056-0.652-0.225-1.186-0.505-1.602
			c-0.281-0.416-0.771-0.625-1.467-0.625c-0.697,0-1.193,0.208-1.485,0.625s-0.467,0.95-0.523,1.602
			c-0.056,0.652-0.084,1.349-0.084,2.092v6.106c0,0.72,0.028,1.412,0.084,2.074c0.056,0.664,0.23,1.199,0.523,1.603
			C48.285,32.345,48.78,32.548,49.478,32.548z"/>
		<path fill="#FFFFFF" d="M58.553,34.942v-19.5h3.609v2.766c0.721-1.192,1.44-1.991,2.16-2.396s1.44-0.607,2.159-0.607
			c0.089,0,0.174,0,0.254,0c0.078,0,0.186,0.011,0.32,0.035v3.981c-0.271-0.113-0.579-0.209-0.928-0.287
			c-0.349-0.08-0.703-0.118-1.063-0.118c-0.563,0-1.075,0.129-1.535,0.387c-0.461,0.259-0.917,0.759-1.368,1.502v14.237H58.553z"/>
		<path fill="#FFFFFF" d="M74.477,35.211c-1.012,0-1.828-0.191-2.446-0.57c-0.619-0.385-1.068-0.923-1.35-1.62
			S70.26,31.5,70.26,30.555V17.838h-2.058v-2.396h2.058V9.741h3.609v5.701h3.138v2.396h-3.138v12.48
			c0,0.767,0.124,1.313,0.372,1.637c0.247,0.329,0.719,0.488,1.417,0.488c0.18,0,0.389-0.011,0.625-0.032
			c0.236-0.022,0.466-0.044,0.691-0.066v2.663c-0.451,0.069-0.865,0.121-1.248,0.154S74.926,35.211,74.477,35.211z"/>
	</g>
</g>
</svg>
